#!OML:ASF H:\Terrain\Patient Classification 1\Walking\steve\steve.ASF
:FULLY-SPECIFIED
:DEGREES
32
root 7.15228 15.4515 -36.5045 5.15633 -4.98216 1.41678
lowerback 2.32888 1.96803 -1.36575
upperback -3.0123 2.51899 -1.27477
thorax -4.41283 1.27456 -0.705257
lowerneck -10.2678 -0.728086 -3.15687
upperneck 14.1847 -1.47594 6.44161
head 6.05272 -0.389644 2.44383
rclavicle 1.9696e-014 -1.0138e-014
rhumerus -45.7491 -7.84544 -86.0572
rradius 34.427
rwrist -7.37318
rhand -25.4485 -39.5188
rfingers 7.12502
rthumb 1.07838 -69.4959
lclavicle 1.9696e-014 -1.0138e-014
lhumerus -45.7587 31.283 63.4642
lradius 12.6828
lwrist -19.1359
lhand -16.837 -10.7409
lfingers 7.12502
lthumb 9.39259 19.0298
rfemur -26.5941 1.68378 20.8056
rtibia 75.3856
rfoot -2.35566 0.295173
rtoes -7.97143
lfemur -22.1817 0.257591 -25.7023
ltibia 33.317
lfoot -15.5616 -0.665285
ltoes -5.13246
33
root 7.15869 15.4573 -36.2703 5.0936 -4.70479 1.81141
lowerback 2.14328 1.84045 -1.86813
upperback -2.88059 2.33456 -1.24887
thorax -4.19265 1.19847 -0.376713
lowerneck -10.5125 -0.664627 -2.93179
upperneck 14.5281 -1.39264 6.14543
head 6.19616 -0.352036 2.3225
rclavicle -8.28839e-015 -1.47101e-014
rhumerus -46.2139 -9.76988 -84.1804
rradius 32.0054
rwrist -2.85723
rhand -20.8584 -38.5669
rfingers 7.12502
rthumb 5.5111 -68.4753
lclavicle -8.28839e-015 -1.47101e-014
lhumerus -42.3046 27.7632 68.3301
lradius 13.5289
lwrist -14.0546
lhand -15.8301 -7.30607
lfingers 7.12502
lthumb 10.3641 22.4185
rfemur -28.209 1.27742 20.6726
rtibia 75.1699
rfoot -3.517 0.486133
rtoes -5.26525
lfemur -20.8275 0.113709 -26.2519
ltibia 32.6188
lfoot -15.8438 -0.856115
ltoes -5.74334
34
root 7.17215 15.4549 -36.0447 4.97577 -4.71359 1.89666
lowerback 2.33532 1.73975 -2.03628
upperback -2.879 2.19444 -1.05974
thorax -4.31282 1.13758 -0.0865056
lowerneck -10.5291 -0.636319 -3.44813
upperneck 14.721 -1.2893 6.23804
head 6.25755 -0.32109 2.44887
rclavicle -6.6787e-015 -1.5704e-014
rhumerus -46.8954 -10.9327 -82.55
rradius 29.0413
rwrist -2.19072
rhand -24.9678 -34.173
rfingers 7.12502
rthumb 1.5427 -64.1471
lclavicle -6.6787e-015 -1.5704e-014
lhumerus -39.695 24.1481 72.5556
lradius 14.7313
lwrist -8.94623
lhand -17.405 -6.63523
lfingers 7.12502
lthumb 8.84456 23.1594
rfemur -29.9736 1.23289 20.8523
rtibia 74.794
rfoot -4.60495 0.406083
rtoes -5.20113
lfemur -19.4477 0.161494 -26.4845
ltibia 31.9359
lfoot -16.0417 -1.31131
ltoes -3.15227
35
root 7.18976 15.4587 -35.8096 4.68373 -4.51328 2.41128
lowerback 2.57566 1.62721 -2.50701
upperback -2.82226 2.01582 -1.06582
thorax -4.40499 1.06358 0.174574
lowerneck -10.4778 -0.67767 -3.83576
upperneck 14.7747 -1.2912 6.28821
head 6.2677 -0.340062 2.52984
rclavicle -6.80177e-015 7.85199e-015
rhumerus -47.8048 -12.0452 -81.0887
rradius 26.7402
rwrist -0.269
rhand -26.0048 -31.9637
rfingers 7.12502
rthumb 0.541091 -61.9427
lclavicle -6.80177e-015 7.85199e-015
lhumerus -37.4787 20.4473 76.186
lradius 16.1257
lwrist -4.26528
lhand -20.6843 -11.4373
lfingers 7.12502
lthumb 5.67919 18.4666
rfemur -31.4375 0.905441 20.5726
rtibia 74.1504
rfoot -6.39263 0.119431
rtoes -5.14081
lfemur -17.9376 0.0524823 -27.1716
ltibia 31.4433
lfoot -16.075 -2.33646
ltoes 3.05382
36
root 7.20209 15.4646 -35.5709 4.56997 -4.10698 2.63572
lowerback 2.49257 1.48242 -2.7687
upperback -2.69884 1.8195 -0.977954
thorax -4.23662 0.973433 0.429074
lowerneck -10.3828 -0.66441 -3.78508
upperneck 14.6806 -1.26211 6.17809
head 6.21903 -0.334112 2.48721
rclavicle -2.31732e-014 -5.31749e-015
rhumerus -48.5554 -13.1394 -79.6806
rradius 24.6813
rwrist 1.78111
rhand -24.1797 -30.9182
rfingers 7.12502
rthumb 2.30381 -60.8855
lclavicle -2.31732e-014 -5.31749e-015
lhumerus -35.4609 17.9324 78.7842
lradius 17.3568
lwrist -1.29389
lhand -22.1352 -14.6058
lfingers 7.12502
lthumb 4.27818 15.331
rfemur -32.814 0.556799 20.6924
rtibia 73.1177
rfoot -7.97725 0.220881
rtoes -2.76897
lfemur -16.6359 0.025715 -27.5327
ltibia 31.0172
lfoot -16.5464 -2.64362
ltoes 2.27829
37
root 7.21041 15.4618 -35.3354 4.61361 -3.84739 2.45792
lowerback 2.38853 1.33729 -2.80546
upperback -2.66708 1.64 -0.673562
thorax -4.14937 0.889353 0.77808
lowerneck -10.4308 -0.478552 -3.70357
upperneck 14.987 -1.04176 6.2224
head 6.31219 -0.216106 2.51008
rclavicle 9.62126e-015 2.07233e-014
rhumerus -49.3039 -14.4683 -77.5247
rradius 22.5536
rwrist 4.87469
rhand -22.0901 -30.2791
rfingers 7.12502
rthumb 4.32179 -60.215
lclavicle 9.62126e-015 2.07233e-014
lhumerus -33.7236 15.9317 80.8878
lradius 18.5999
lwrist 1.17664
lhand -22.4798 -13.2476
lfingers 7.12502
lthumb 3.94548 16.6956
rfemur -34.2765 0.520208 21.2755
rtibia 71.7406
rfoot -9.60672 1.25799
rtoes -10.5675
lfemur -15.505 0.205002 -27.4567
ltibia 30.5548
lfoot -17.2695 -2.74509
ltoes -0.214694
38
root 7.21831 15.457 -35.0969 4.56211 -3.67154 2.86459
lowerback 2.51227 1.23949 -3.3939
upperback -2.7286 1.48004 -0.593853
thorax -4.29747 0.831441 1.19527
lowerneck -10.4142 -0.534751 -3.77958
upperneck 15.1092 -1.05462 5.87904
head 6.34766 -0.253446 2.4126
rclavicle -2.37322e-014 -1.38652e-014
rhumerus -50.5465 -16.657 -74.2095
rradius 20.5936
rwrist 10.6029
rhand -19.7682 -30.3394
rfingers 7.12502
rthumb 6.56359 -60.2177
lclavicle -2.37322e-014 -1.38652e-014
lhumerus -32.2936 13.567 82.7314
lradius 20.0273
lwrist 3.568
lhand -22.8832 -12.2977
lfingers 7.12502
lthumb 3.55585 17.6524
rfemur -35.7255 0.451589 21.1415
rtibia 70.1761
rfoot -9.99592 -0.247989
rtoes -18.1044
lfemur -14.2962 0.529382 -28.0149
ltibia 30.0586
lfoot -17.6041 -3.35344
ltoes 1.41747
39
root 7.22958 15.4459 -34.8534 4.39017 -3.40841 3.30866
lowerback 2.69819 1.17567 -3.89008
upperback -2.73399 1.36253 -0.609725
thorax -4.41686 0.790042 1.45989
lowerneck -10.4999 -0.47388 -3.57143
upperneck 15.4106 -1.00372 5.79624
head 6.45456 -0.220097 2.35934
rclavicle 9.11012e-015 1.41137e-014
rhumerus -52.2595 -19.6311 -70.0333
rradius 18.8031
rwrist 17.5404
rhand -16.0405 -32.8183
rfingers 7.12502
rthumb 10.1611 -62.5529
lclavicle 9.11012e-015 1.41137e-014
lhumerus -30.8916 11.1638 84.2589
lradius 21.3558
lwrist 5.50598
lhand -23.2054 -12.5351
lfingers 7.12502
lthumb 3.24477 17.42
rfemur -36.8812 0.370051 20.8897
rtibia 68.4358
rfoot -9.38354 0.120337
rtoes -14.2809
lfemur -12.8054 1.02314 -28.6092
ltibia 29.2757
lfoot -17.9085 -3.48761
ltoes -1.76873
40
root 7.24724 15.4388 -34.5964 4.1142 -3.22906 3.26124
lowerback 2.73084 1.10919 -3.80181
upperback -2.60885 1.28443 -0.485812
thorax -4.30111 0.74716 1.54505
lowerneck -10.3143 -0.422145 -3.7019
upperneck 15.2802 -0.935462 5.94976
head 6.37809 -0.185901 2.43418
rclavicle 1.19698e-014 -1.11319e-014
rhumerus -54.1593 -22.4391 -65.6361
rradius 17.1675
rwrist 23.1398
rhand -13.2626 -35.1221
rfingers 7.12502
rthumb 12.84 -64.7071
lclavicle 1.19698e-014 -1.11319e-014
lhumerus -29.5347 8.72865 85.61
lradius 22.75
lwrist 7.68245
lhand -23.4931 -12.3638
lfingers 7.12502
lthumb 2.96686 17.5953
rfemur -37.5603 0.48497 21.0469
rtibia 66.4282
rfoot -9.84258 0.879842
rtoes -15.3854
lfemur -10.9299 1.47908 -28.6767
ltibia 28.1766
lfoot -18.4607 -3.50112
ltoes -5.79948
41
root 7.25835 15.4495 -34.3391 3.81845 -3.09681 3.43875
lowerback 2.73251 1.04848 -4.0143
upperback -2.44499 1.1996 -0.429151
thorax -4.13331 0.707301 1.73025
lowerneck -10.2753 -0.441136 -3.86527
upperneck 15.2181 -0.930942 5.94331
head 6.35183 -0.194656 2.45883
rclavicle 3.20696e-016 -9.74045e-015
rhumerus -56.3335 -24.8093 -61.1819
rradius 15.9252
rwrist 28.2562
rhand -15.927 -32.9422
rfingers 7.12502
rthumb 10.2706 -62.6714
lclavicle 3.20696e-016 -9.74045e-015
lhumerus -28.2664 6.30902 86.7382
lradius 24.353
lwrist 9.87503
lhand -23.5011 -12.4466
lfingers 7.12502
lthumb 2.95915 17.5126
rfemur -38.0822 0.587788 20.869
rtibia 64.1142
rfoot -10.7691 1.65957
rtoes -14.41
lfemur -9.04709 1.9104 -28.9431
ltibia 27.1554
lfoot -18.7354 -4.35473
ltoes -3.22927
42
root 7.26016 15.46 -34.1062 3.7368 -2.65298 3.62373
lowerback 2.9471 0.946221 -4.28182
upperback -2.42896 1.04115 -0.39843
thorax -4.23552 0.63848 1.91901
lowerneck -10.3486 -0.435344 -3.71376
upperneck 15.3671 -0.933749 5.82784
head 6.41125 -0.194429 2.39821
rclavicle -5.69875e-015 -1.09332e-014
rhumerus -59.1169 -27.3405 -55.9989
rradius 14.7409
rwrist 34.1362
rhand -15.7219 -31.9151
rfingers 7.12502
rthumb 10.4684 -61.6344
lclavicle -5.69875e-015 -1.09332e-014
lhumerus -27.0196 3.83299 87.6749
lradius 25.9232
lwrist 11.7603
lhand -23.7237 -12.4664
lfingers 7.12502
lthumb 2.74416 17.4956
rfemur -38.7802 0.437522 20.801
rtibia 61.4035
rfoot -11.3811 1.98404
rtoes -11.0953
lfemur -7.55231 2.43826 -29.1102
ltibia 26.2731
lfoot -18.8099 -5.18978
ltoes -2.43343
43
root 7.25652 15.4629 -33.8834 4.16318 -2.04009 3.27163
lowerback 2.91092 0.799761 -4.07124
upperback -2.63474 0.860675 -0.190819
thorax -4.41676 0.552404 2.02688
lowerneck -10.2071 -0.521791 -3.81107
upperneck 15.3034 -1.03729 5.83295
head 6.37205 -0.252115 2.40613
rclavicle -1.54679e-015 5.1684e-015
rhumerus -62.6135 -29.9888 -49.6627
rradius 13.6352
rwrist 40.1382
rhand -15.9889 -31.3935
rfingers 7.12502
rthumb 10.2109 -61.1257
lclavicle -1.54679e-015 5.1684e-015
lhumerus -25.9183 1.2748 88.5094
lradius 27.5043
lwrist 13.5187
lhand -24.1218 -11.8184
lfingers 7.12502
lthumb 2.35973 18.1483
rfemur -39.8385 0.319974 21.4043
rtibia 58.2986
rfoot -12.3691 1.63175
rtoes -15.1373
lfemur -6.6859 2.9197 -28.6184
ltibia 25.4277
lfoot -18.8364 -5.85603
ltoes -4.22348
